<?xml version="1.0" encoding="utf-8"?>
<!-- Generator: Adobe Illustrator 27.5.0, SVG Export Plug-In . SVG Version: 6.00 Build 0)  -->
<svg version="1.1" xmlns="http://www.w3.org/2000/svg" xmlns:xlink="http://www.w3.org/1999/xlink" x="0px" y="0px"
	 viewBox="0 0 500 500" style="enable-background:new 0 0 500 500;" xml:space="preserve">
<g id="BACKGROUND">
	<rect style="fill:#FFFFFF;" width="500" height="500"/>
</g>
<g id="OBJECTS">
	<g>
		<path style="fill:#EBEBEB;" d="M144.261,206.702c29.855-3.994,56.586-20.923,72.914-46.234
			c18.739-29.049,54.658-60.558,121.525-55.799c120.686,8.589,140.891,207.206,5.714,279.137S53.557,367.104,58.391,278.83
			C61.145,228.564,106.078,211.81,144.261,206.702z"/>
		<path style="fill:#DDDDDD;" d="M60.951,302.903c8.772,33.216,38.532,64.34,79.209,84.419l256.467-45.329l0.002-0.002
			c20.587-24.301,33.127-52.831,38.327-81.527L60.951,302.903z"/>
		<path style="fill:#8B9295;" d="M141.043,387.759l255.584-45.766c0.335-0.396,0.662-0.796,0.993-1.194l-258.084,46.213
			C140.037,387.263,140.538,387.512,141.043,387.759z"/>
	</g>
	<g>
		<g>
			<text transform="matrix(1 0 0 1 148.1258 147.0365)" style="fill:#C4C4C4; font-family:'Kanit-Bold'; font-size:30.436px;">&lt;/&gt;</text>
		</g>
		<g>
			
				<text transform="matrix(0.9999 -0.012 0.012 0.9999 371.2869 179.5952)" style="fill:#C4C4C4; font-family:'Kanit-Bold'; font-size:26.2047px;">C++</text>
		</g>
	</g>
	<g>
		<path style="fill:#263238;" d="M112.109,300.793l-3.234-1.027c-1.246-0.396-2.092-1.552-2.092-2.859V172.18
			c0-1.608,1.268-2.93,2.874-2.997l144.98-6.098c2.359-0.099,4.72,0.087,7.034,0.554l5.279,1.847L134.504,292.578L112.109,300.793z"
			/>
		<path style="fill:#455A64;" d="M121.701,305.846v3.191c0,1.098,0.6,2.109,1.565,2.634l23.867,13.004
			c0.561,0.306,1.204,0.424,1.837,0.339l112.81-15.246c0.992-0.134,1.732-0.981,1.732-1.982v-2.906l-31.834-12.611L121.701,305.846z
			"/>
		<g>
			<polygon style="fill:#263238;" points="167.492,307.707 163.048,305.899 163.048,289.537 169.108,289.537 			"/>
			<polygon style="fill:#37474F;" points="223.246,278.83 167.492,284.689 167.492,307.707 223.246,300.849 			"/>
		</g>
		<path style="fill:#455A64;" d="M266,282.415l-153.891,18.378V174.615c0-1.607,1.266-2.929,2.872-2.997l150.535-6.437
			c1.706-0.073,3.128,1.29,3.128,2.997v111.258C268.645,280.956,267.509,282.235,266,282.415z"/>
		<g>
			<path style="fill:#FAFAFA;" d="M122.088,281.393l139.005-14.574c1.18-0.124,2.077-1.119,2.077-2.306v-89.336
				c0-1.326-1.109-2.381-2.433-2.316l-139.005,6.892c-1.234,0.061-2.204,1.08-2.204,2.316v97.019
				C119.528,280.463,120.72,281.536,122.088,281.393z"/>
			<path style="fill:#E0E0E0;" d="M219.653,174.898l-97.921,4.855c-1.234,0.061-2.204,1.08-2.204,2.316v97.019
				c0,1.376,1.192,2.449,2.56,2.306l97.565-10.229V174.898z"/>
			<g>
				<polygon style="fill:#FF725E;" points="131.285,205.635 131.228,202.639 168.905,200.034 168.962,203.029 				"/>
				<polygon style="fill:#455A64;" points="136.665,210.932 136.608,207.936 174.285,205.331 174.342,208.326 				"/>
				<polygon style="fill:#455A64;" points="137.097,216.709 137.04,213.714 169.125,211.587 169.182,214.583 				"/>
				<polygon style="fill:#FF725E;" points="131.609,222.6 131.552,219.604 169.229,216.999 169.286,219.994 				"/>
				<polygon style="fill:#455A64;" points="138.145,227.746 138.088,224.75 175.764,222.145 175.822,225.14 				"/>
				<polygon style="fill:#455A64;" points="145.069,233.014 145.012,230.018 173.373,228.058 173.43,231.053 				"/>
				<polygon style="fill:#455A64;" points="145.561,238.532 145.504,235.537 169.551,233.9 169.608,236.895 				"/>
				<polygon style="fill:#455A64;" points="145.672,244.346 145.614,241.35 183.291,238.744 183.348,241.74 				"/>
				<polygon style="fill:#455A64;" points="138.567,249.915 138.51,246.92 176.187,244.314 176.244,247.309 				"/>
				<polygon style="fill:#FF725E;" points="132.256,256.53 132.199,253.534 169.865,250.374 169.922,253.37 				"/>
			</g>
			<path style="fill:#B5B8B9;" d="M125.138,179.862l-0.206-0.268l-3.201,0.159c-1.234,0.061-2.204,1.08-2.204,2.316v97.019
				c0,1.376,1.192,2.449,2.56,2.306l3.05-0.32V179.862z"/>
			<path style="fill:#FF725E;" d="M263.17,180.025v-5.018c0-1.326-1.109-2.381-2.433-2.316l-139.005,6.891
				c-1.234,0.061-2.204,1.08-2.204,2.316v4.74L263.17,180.025z"/>
			<polygon style="fill:#FFB497;" points="226.385,257.013 258.818,254.095 258.818,189.39 226.385,191.117 			"/>
		</g>
		<path style="fill:#263238;" d="M121.701,305.846v3.191c0,1.098,0.6,2.109,1.565,2.634l23.867,13.004
			c0.561,0.306,1.204,0.424,1.837,0.339l112.81-15.246c0.992-0.134,1.732-0.981,1.732-1.982v-2.906l-115.153,15.624L121.701,305.846
			z"/>
	</g>
	<g>
		<path style="fill:#455A64;" d="M145.847,336.712v3.702c0,1.105,0.562,2.134,1.491,2.731l21.541,13.845
			c1.053,0.677,2.321,0.934,3.555,0.721l132.738-22.931c1.439-0.249,2.489-1.496,2.489-2.956v-2.435l-32.939-12.445L145.847,336.712
			z"/>
		<path style="fill:#263238;" d="M172.434,357.71l132.738-22.931c1.439-0.249,2.489-1.496,2.489-2.956v-2.435l-135.129,22.651
			c-1.211,0.203-2.455-0.047-3.494-0.702l-23.191-14.624v3.94c0,0.956,0.486,1.847,1.291,2.364l21.741,13.973
			C169.932,357.666,171.2,357.923,172.434,357.71z"/>
	</g>
	<g>
		<g>
			<g>
				<path style="fill:#FF725E;" d="M113.06,344.958H62.391c-2.209,0-4-1.791-4-4v-24.271c0-2.209,1.791-4,4-4h50.669
					c2.209,0,4,1.791,4,4v24.271C117.06,343.167,115.269,344.958,113.06,344.958z"/>
				<text transform="matrix(1 0 0 1 71.8478 333.7328)" style="fill:#FFFFFF; font-family:'Kanit-Bold'; font-size:16.8872px;">PHP</text>
			</g>
			<g>
				<path style="fill:#FF725E;" d="M421.565,252.038h-54.586c-2.209,0-4-1.791-4-4v-20.611c0-2.209,1.791-4,4-4h54.586
					c2.209,0,4,1.791,4,4v20.611C425.565,250.247,423.774,252.038,421.565,252.038z"/>
				<text transform="matrix(1 0 0 1 374.3373 243.5589)" style="fill:#FFFFFF; font-family:'Kanit-Bold'; font-size:16.0966px;">HTML</text>
			</g>
			<g>
				<path style="fill:#FF725E;" d="M295.945,127.76H254c-2.209,0-4-1.791-4-4v-20.611c0-2.209,1.791-4,4-4h41.945
					c2.209,0,4,1.791,4,4v20.611C299.945,125.969,298.154,127.76,295.945,127.76z"/>
				<text transform="matrix(1 0 0 1 266.9504 118.9154)" style="fill:#FFFFFF; font-family:'Kanit-Bold'; font-size:16.0966px;">JS</text>
			</g>
		</g>
	</g>
	<g>
		<g>
			<path style="fill:#263238;" d="M280.476,220.343c0,0-5.439,0.58-6.346-5.829c-0.906-6.409-3.4-8.222-6.119-11.849
				s0-8.159,0-8.159s-6.799-0.907-6.119-7.932c0.68-7.026,5.213-7.479,5.213-7.479s-3.853-10.199,6.346-10.426
				c0,0-2.493-7.479,2.266-12.012c4.759-4.533,7.253-4.986,7.253-4.986s-3.853-5.439,0-8.386s3.173,5.666,9.746,2.493
				c6.573-3.173,19.038-8.839,21.758,0.906c0,0,11.332-3.853,14.279,6.346c0,0,15.638-5.893,19.038,6.346
				c0,0,13.825,4.986,10.652,19.718c0,0,6.799,4.08,6.573,14.278c-0.227,10.199-7.932,13.825-7.932,13.825s4.759,12.216-4.76,16.545
				c0,0-0.41,11.749-11.424,7.348c-11.014-4.401-50.45-11.654-50.45-11.654L280.476,220.343z"/>
			<path style="fill:#1D272B;" d="M309.138,174.417c0,0,2.168-4.076-0.347-8.932c-2.515-4.856-8.672-3.122-10.666,0
				c-1.995,3.122-4.356,7.502-4.356,7.502v0.389l4.096,2.602L309.138,174.417z"/>
			<g>
				<path style="fill:#344A51;" d="M318.202,157.452c0.391-1.896,0.534-3.899,0.076-5.778c0.069,1.925-0.33,3.781-0.831,5.591
					c-0.512,1.715-1.153,3.391-1.885,5.031c0.224-1.848,0.212-3.737-0.027-5.621c-0.481-2.478-1.526-4.973-3.432-6.79
					c-1.893-1.842-4.532-2.691-7.066-2.828c-2.536-0.101-5.117,0.165-7.499,1.214c-2.403,1.016-4.285,2.989-5.622,5.11
					c-1.378,2.099-2.383,4.415-4.088,6.023c-0.848,0.794-1.881,1.337-3.018,1.567c-1.2,0.233-2.482,0.543-3.655,1.075
					c-1.15,0.591-2.213,1.414-2.961,2.475c-0.75,1.049-1.161,2.346-1.022,3.588c0.064-1.243,0.637-2.388,1.433-3.257
					c0.806-0.877,1.854-1.48,2.962-1.888c1.087-0.49,2.226-0.78,3.453-1.015c0.649-0.122,1.274-0.37,1.872-0.659
					c0.583-0.321,1.135-0.702,1.616-1.152c1.921-1.835,2.909-4.198,4.248-6.212c1.295-2.042,2.994-3.807,5.19-4.741
					c2.165-0.963,4.645-1.227,7.034-1.129c2.38,0.133,4.743,0.909,6.433,2.553c1.706,1.621,2.685,3.91,3.143,6.263
					c0.525,1.953,0.72,4.009,0.712,6.076c-0.701,1.551-1.477,3.072-2.293,4.573c0.186-2.036,0.152-4.1-0.15-6.154
					c-0.326-2.355-1.235-4.816-3.2-6.485c-0.963-0.836-2.209-1.335-3.458-1.479c-1.256-0.158-2.501,0.015-3.676,0.305
					c-2.365,0.536-4.663,1.792-6.235,3.681c-1.62,1.843-2.679,4.02-3.877,5.996c-0.591,1.001-1.258,1.93-2.034,2.736
					c-0.767,0.823-1.722,1.401-2.732,1.844c-2.164,0.86-4.42,1.442-6.687,2.268c-1.11,0.426-2.335,1.012-3.104,2.128
					c-0.72,1.001-0.963,2.163-1.107,3.273c-1.61,0.624-3.003,1.614-4.069,2.955c-1.155,1.415-1.727,3.234-1.846,5.017
					c-0.067,1.781,0.328,3.562,1.08,5.153c0.78,1.571,1.96,2.959,3.469,3.789c-1.39-1.007-2.366-2.466-2.96-4.008
					c-0.574-1.564-0.715-3.247-0.569-4.876c0.07-1.617,0.601-3.205,1.612-4.456c0.979-1.255,2.406-2.235,3.881-2.749l0.32-0.111
					l0.036-0.316c0.127-1.124,0.353-2.252,0.968-3.09c0.582-0.861,1.586-1.368,2.649-1.775c2.157-0.788,4.477-1.39,6.692-2.27
					c1.144-0.494,2.233-1.167,3.081-2.075c0.856-0.889,1.568-1.89,2.174-2.916c1.234-2.045,2.266-4.146,3.773-5.855
					c1.46-1.748,3.511-2.861,5.717-3.37c2.181-0.585,4.597-0.492,6.261,0.969c0.829,0.698,1.486,1.622,1.938,2.652
					c0.451,1.027,0.888,2.091,1.161,3.217c0.507,2.006,0.732,4.1,0.782,6.203c-0.447,0.799-0.897,1.598-1.38,2.378
					c-0.506,0.795-0.963,1.668-1.684,2.276c0.463-0.173,0.785-0.571,1.125-0.904c0.334-0.351,0.648-0.718,0.959-1.088
					c0.605-0.753,1.17-1.536,1.698-2.344c1.06-1.613,1.986-3.313,2.783-5.076C317.148,161.194,317.803,159.357,318.202,157.452z"/>
				<path style="fill:#344A51;" d="M338.004,190.676c-0.795-0.713-1.56-1.51-1.973-2.439c-0.434-0.951-0.661-2.033-0.84-3.117
					c-0.336-2.184-0.441-4.433-0.646-6.683c-0.207-2.249-0.459-4.528-1.152-6.747c-0.351-1.104-0.824-2.194-1.512-3.174
					c-0.682-0.973-1.646-1.813-2.711-2.321l-0.788-0.398l-0.833-0.298c-0.547-0.229-1.141-0.295-1.713-0.438
					c-1.169-0.15-2.355-0.176-3.516,0.001c-2.281,0.538-4.391,1.573-6.112,3.045c1.952-1.124,4.102-1.864,6.262-2.048
					c1.069-0.153,2.148-0.153,3.21-0.009c0.517,0.134,1.057,0.187,1.552,0.398l0.756,0.269l0.717,0.364
					c1.944,0.899,3.097,2.843,3.735,4.912c0.653,2.084,0.907,4.31,1.11,6.534c0.204,2.23,0.307,4.483,0.654,6.75
					c0.189,1.13,0.419,2.276,0.919,3.378c0.515,1.136,1.361,1.996,2.226,2.776c1.747,1.547,3.892,2.495,5.268,4.069
					c0.739,0.721,1.193,1.684,1.255,2.762c0.1,1.081-0.212,2.18-0.497,3.268c0.466-1.017,0.965-2.075,1.019-3.266
					c0.11-1.173-0.262-2.444-1.015-3.411C341.749,193.029,339.613,192.129,338.004,190.676z"/>
				<path style="fill:#344A51;" d="M347.136,184.967c-1.244-1.066-2.534-2.065-3.791-3.078l-0.92-0.766
					c-0.26-0.238-0.495-0.514-0.698-0.824c-0.408-0.621-0.711-1.342-0.952-2.09c-0.95-3.017-1.293-6.286-2.075-9.469
					c-0.377-1.597-0.861-3.187-1.551-4.712c-0.709-1.507-1.647-2.979-2.989-4.069c-1.313-1.12-2.983-1.782-4.661-1.998
					c-0.42-0.067-0.841-0.135-1.27-0.115c-0.426,0.013-0.857-0.054-1.28,0.033c-0.856,0.083-1.677,0.346-2.462,0.66
					c-1.565,0.661-2.919,1.692-4.058,2.88c-1.142,1.189-2.091,2.545-2.806,4.006c1.743-2.707,4.197-5.08,7.169-6.075
					c1.482-0.451,3.033-0.634,4.562-0.4c1.53,0.198,3.003,0.785,4.167,1.778c2.382,1.989,3.463,5.166,4.207,8.244
					c0.772,3.121,1.099,6.36,2.098,9.55c0.259,0.794,0.584,1.588,1.067,2.326c0.242,0.368,0.533,0.716,0.874,1.025l0.951,0.792
					c1.271,1.024,2.549,2.014,3.771,3.061c2.437,2.075,4.74,4.394,6.087,7.233c0.689,1.403,1.052,2.947,1.045,4.492
					c0.01,1.533-0.33,3.107-0.85,4.597c-0.513,1.485-1.242,2.896-2.256,4.057c-0.522,0.563-1.096,1.074-1.741,1.475
					c-0.629,0.393-1.384,0.703-2.037,0.804l-0.962,0.148l0.652,0.701c0.736,0.792,1.343,1.778,1.886,2.743
					c0.52,0.99,0.874,2.07,0.966,3.186c0.071,0.56,0.001,1.118-0.054,1.68c-0.138,0.546-0.244,1.109-0.507,1.621
					c-0.192,0.544-0.534,1.012-0.833,1.509c-0.324,0.479-0.735,0.897-1.103,1.354c0.407-0.415,0.863-0.796,1.239-1.249
					c0.35-0.472,0.755-0.918,0.999-1.468c0.317-0.513,0.481-1.093,0.675-1.667c0.111-0.592,0.233-1.193,0.209-1.804
					c0.002-1.219-0.287-2.432-0.762-3.553c-0.36-0.882-0.856-1.674-1.456-2.416c1.436-0.446,2.6-1.346,3.575-2.399
					c1.127-1.29,1.908-2.819,2.454-4.395c0.546-1.569,0.911-3.219,0.905-4.931c0.008-1.697-0.398-3.399-1.139-4.91
					C352.022,189.475,349.614,187.083,347.136,184.967z"/>
				<path style="fill:#344A51;" d="M356.783,189.256c-0.133-1.346-0.412-2.693-0.933-3.971c-0.526-1.273-1.307-2.453-2.294-3.44
					c-0.905-0.891-1.945-1.601-3.169-2.084c0.038-0.589,0.089-1.178,0.069-1.768c-0.052-0.718-0.048-1.44-0.217-2.146
					c-0.237-1.42-0.759-2.797-1.499-4.023c-0.734-1.232-1.671-2.332-2.751-3.247c-1.103-0.885-2.304-1.652-3.618-2.132
					c1.211,0.687,2.325,1.519,3.283,2.499c0.98,0.953,1.799,2.059,2.408,3.26c0.597,1.202,1.077,2.471,1.238,3.805
					c0.147,0.655,0.135,1.332,0.177,2c0.018,0.671-0.08,1.343-0.104,2.015l-0.015,0.418l0.378,0.122
					c1.132,0.366,2.258,1.096,3.169,1.957c0.934,0.865,1.665,1.93,2.254,3.076c0.571,1.16,0.916,2.428,1.147,3.72
					c0.123,0.646,0.163,1.306,0.25,1.965c0.012,0.661,0.03,1.326,0.059,1.997c0.076-0.662,0.149-1.329,0.201-2
					C356.803,190.609,356.836,189.931,356.783,189.256z"/>
			</g>
		</g>
		<path style="fill:#6F4C47;" d="M340.121,264.002l0.009-0.003l-0.054-0.287c-0.01-0.049-0.017-0.099-0.027-0.147l-5.898-31.487
			l-3.754-2.372l-27.217,16.268l3.208,22.662c0.046,0.496,0.12,0.983,0.207,1.465l0.039,0.272l0.003,0.002
			c1.547,7.824,8.442,13.726,16.72,13.726c9.416,0,17.05-7.633,17.05-17.05C340.408,266.008,340.3,264.993,340.121,264.002z"/>
		<path style="fill:#A56963;" d="M334.57,216.167c-0.638,0-1.259,0.072-1.858,0.2c-3.694-2.128-1.702-10.329-0.277-14.799
			c0.531-1.667,0.077-3.495-1.19-4.702c-6.814-6.491-0.216-13.899-3.37-20.404c-3.443-7.1-18.074-4.088-18.074-4.088
			c-4.353-0.622-10.617-0.345-13.757-0.144c-1.096,0.07-2.144,0.508-2.922,1.284c-2.228,2.225-4.716,2.26-6.46,1.869
			c-1.09-0.244-2.089,0.656-2.06,1.772c0.179,7.003-2.772,7.697-2.772,7.697c-3.658,18.719-4.552,43.659-4.552,43.659l0,0
			c-0.066,0.762-0.107,1.531-0.107,2.31c0,14.616,11.849,26.465,26.465,26.465c12.387,0,22.783-8.511,25.667-20.003h0.001
			l0.008-0.037c0.196-0.786,0.361-1.585,0.485-2.398l0.447-2.21c1.278,0.723,2.752,1.14,4.325,1.14c4.863,0,8.806-3.943,8.806-8.806
			C343.375,220.11,339.433,216.167,334.57,216.167z"/>
		<g>
			<path style="fill:#6F4C47;" d="M197.385,337.999c0,0,3.574,5.435,6.254,3.127c2.68-2.308-7.594-11.168-7.594-11.168l-3.574,0.521
				l-0.744,3.872L197.385,337.999z"/>
			<path style="fill:#A56963;" d="M229.804,335.311c0,0-5.129-1.465-8.792-7.327c-3.663-5.861-10.254-15.803-14.65-18.734
				c-4.396-2.931-16.618,6.341-15.243,8.916c1.662,3.113,11.654-4.066,11.654-4.066l5.198,4.945c0,0-4.689-1.759-6.154,1.465
				c0,0-4.689-0.586-6.154,2.784c0,0-2.578-1.026-4.586,1.905c-2.008,2.931-4.939,8.499-4.06,10.844
				c0.879,2.345,7.62,3.077,10.404,6.301c2.784,3.224,4.103-0.146,2.198-3.37c-1.905-3.224-5.209-4.778-5.209-4.778l0.642-1.107
				c0,0,9.256,13.065,18.488,13.652c9.232,0.586,16.265,0.879,16.265,0.879V335.311z"/>
			<g>
				<path style="fill:#6F4C47;" d="M202.536,328.152c-0.957-0.828-1.952-1.596-2.974-2.31c-1.023-0.71-2.086-1.355-3.204-1.826
					c-1.129-0.516-2.244-0.66-3.261-0.138c-0.994,0.503-1.796,1.496-2.337,2.514l-0.026,0.049c-1.181,1.861-2.334,3.767-3.305,5.782
					c0.273-1.089,0.673-2.146,1.118-3.178c0.451-1.032,0.956-2.032,1.517-3.019l-0.025,0.049c0.566-1.223,1.393-2.326,2.65-3
					c1.263-0.695,2.907-0.426,4.005,0.184c1.187,0.557,2.241,1.31,3.21,2.141C200.873,326.231,201.756,327.155,202.536,328.152z"/>
			</g>
			<g>
				<path style="fill:#6F4C47;" d="M195.662,323.295c0.357-1.195,1.374-2.161,2.538-2.692c0.593-0.262,1.209-0.428,1.859-0.516
					c0.681-0.069,1.348,0.028,1.964,0.218c1.235,0.385,2.317,1.043,3.294,1.798c0.975,0.759,1.866,1.616,2.614,2.589
					c-0.995-0.713-1.985-1.402-3.003-2.025c-1.02-0.612-2.068-1.18-3.16-1.501c-0.545-0.149-1.096-0.258-1.626-0.209
					c-0.553,0.058-1.13,0.154-1.668,0.335C197.399,321.656,196.385,322.303,195.662,323.295z"/>
			</g>
			<g>
				<path style="fill:#6F4C47;" d="M201.816,320.511c0.261-1.119,1.351-1.962,2.501-2.229c0.581-0.127,1.174-0.158,1.756-0.11
					c0.593,0.079,1.182,0.207,1.708,0.456c1.075,0.452,2.003,1.131,2.82,1.897c0.818,0.766,1.548,1.618,2.126,2.568
					c-0.839-0.724-1.677-1.421-2.551-2.052c-0.874-0.627-1.776-1.206-2.735-1.589c-0.477-0.204-0.968-0.318-1.458-0.402
					c-0.51-0.042-1.023-0.08-1.524-0.013C203.463,319.151,202.483,319.609,201.816,320.511z"/>
			</g>
			<g>
				<path style="fill:#6F4C47;" d="M193.973,331.501c1.44,1.591,2.776,3.203,4.164,4.781c1.363,1.602,2.786,3.126,4.171,4.77
					c-1.852-1.096-3.451-2.565-4.855-4.176c-0.696-0.813-1.356-1.658-1.941-2.555C194.921,333.429,194.381,332.499,193.973,331.501z
					"/>
			</g>
			<g>
				<polygon style="fill:#6F4C47;" points="195.439,333.324 193.703,335.317 194.663,332.854 				"/>
			</g>
		</g>
		<g>
			<path style="fill:#8E514F;" d="M259.28,327.021c0,0,2.412,0.777,4.951-0.131c2.849-1.02,6.583-3.754,6.583-3.754l-4.338-1.035
				L259.28,327.021z"/>
			<path style="fill:#A56963;" d="M279.838,327.125c0,0-5.447,0.206-10.379,3.083c-4.933,2.878-7.399,5.598-8.324,3.21
				c-0.925-2.388,6.063-6.943,6.063-6.943l1.888-2.192c0.275-0.32,0.009-0.81-0.409-0.753l-2.472,0.536
				c0,0-9.189,5.517-12.134,3.957c0,0-4.96,3.419-7.221,2.083s7.091-8.324,11.202-9.968c4.111-1.644,10.285-0.974,21.787-2.98
				V327.125z"/>
			<g>
				<path style="fill:#6F4C47;" d="M246.513,329.615c0.346,0.493,0.926,0.727,1.478,0.745c0.564,0.011,1.111-0.176,1.629-0.403
					c1.036-0.5,2.067-1.11,3.092-1.688l6.166-3.511l0.073-0.042l0.074-0.012c3.199-0.499,6.411-0.924,9.652-1.175
					c-3.145,0.82-6.32,1.466-9.507,2.038l0.148-0.053c-2.044,1.212-4.116,2.368-6.24,3.44c-1.073,0.523-2.123,1.058-3.276,1.469
					c-0.58,0.201-1.217,0.305-1.838,0.213C247.347,330.541,246.753,330.173,246.513,329.615z"/>
			</g>
		</g>
		<g>
			<path style="fill:#FF725E;" d="M363.375,271.993c-6.207-18.621-22.042-17.755-22.042-17.755s-5.826-4.238-17.336-0.949
				c-10.592,3.027-17.896,13.312-17.896,13.312s-16.257,5.393-21.031,18.523c-4.775,13.13-11.937,54.193-11.937,54.193
				l-44.166-4.297l-3.581,14.324c0,0,25.306,11.937,62.31,16.473l-5.099,40.101c20.659-4.1,41.47-11.285,61.817-22.112
				c12.543-6.675,23.746-14.442,33.657-23.046l-15.173-29.082C362.898,331.677,369.582,290.615,363.375,271.993z"/>
			<g>
				<path style="fill:#BC4B42;" d="M285.593,365.543c-0.012-0.004-0.02-0.007-0.02-0.007l-0.001,0.005
					C285.579,365.542,285.586,365.543,285.593,365.543z"/>
				<path style="fill:#E2544D;" d="M300.899,369.457c1.941-4.747,3.269-55.089,3.269-55.089s-7.005,38.714-8.836,46.419
					c-1.225,5.155-5.176,5.537-7.66,5.226l-1.152,9.962C290.989,376.046,298.234,375.977,300.899,369.457z"/>
			</g>
			<g>
				<g>
					<path style="fill:#A84338;" d="M306.101,266.601c5.06-3.779,10.758-6.652,16.674-8.883c2.966-1.106,6.026-1.968,9.128-2.609
						c3.102-0.647,6.283-0.908,9.431-0.87c-3.11,0.545-6.157,1.185-9.162,2.009c-2.992,0.86-5.968,1.764-8.878,2.877
						c-2.923,1.072-5.804,2.262-8.667,3.509C311.775,263.906,308.923,265.2,306.101,266.601z"/>
				</g>
				<g>
					<path style="fill:#A84338;" d="M306.101,295.957c-0.215,4.762-0.588,9.518-1.045,14.267c-0.508,4.742-1.083,9.48-1.775,14.201
						c-1.372,9.445-3.194,18.819-5.234,28.143c-0.534,2.326-1.09,4.647-1.668,6.962c-0.155,0.591-0.266,1.131-0.458,1.763
						c-0.18,0.633-0.467,1.233-0.811,1.791c-0.694,1.12-1.697,2.032-2.855,2.646c-1.165,0.604-2.486,0.9-3.796,0.83
						c-0.676-0.045-1.24-0.147-1.836-0.231l-1.77-0.27c-2.359-0.358-4.711-0.759-7.057-1.195c-9.374-1.732-18.769-3.631-27.796-6.74
						c4.595,1.27,9.243,2.295,13.921,3.169c4.669,0.916,9.361,1.716,14.065,2.433l7.058,1.051l1.765,0.252
						c0.583,0.079,1.197,0.176,1.709,0.202c1.074,0.048,2.149-0.206,3.097-0.707c0.941-0.512,1.75-1.262,2.304-2.176
						c0.274-0.456,0.504-0.943,0.643-1.459c0.153-0.508,0.281-1.137,0.423-1.699c0.555-2.312,1.082-4.631,1.599-6.952
						c2.156-9.267,3.949-18.614,5.561-27.992c0.828-4.686,1.527-9.394,2.184-14.108
						C305.031,305.425,305.549,300.692,306.101,295.957z"/>
				</g>
				<g>
					<path style="fill:#A84338;" d="M323.717,346.207c1.015-0.951,2.051-1.883,3.097-2.81c1.096-0.86,2.162-1.771,3.299-2.586
						c1.165-0.772,2.273-1.644,3.505-2.321l1.813-1.074l1.88-0.961c2.53-1.232,5.174-2.276,7.937-2.939
						c1.383-0.319,2.78-0.603,4.207-0.716c1.436-0.129,2.828-0.18,4.358,0.031c0.389,0.054,0.66,0.412,0.607,0.801
						c-0.033,0.24-0.183,0.436-0.385,0.537l-0.024,0.012c-3.212,1.588-6.435,3.153-9.677,4.683
						c-1.628,0.751-3.245,1.522-4.887,2.245c-1.638,0.73-3.267,1.479-4.924,2.173c1.537-0.93,3.102-1.805,4.657-2.698
						c1.552-0.901,3.128-1.753,4.694-2.626c3.146-1.718,6.309-3.401,9.484-5.06l0.198,1.35c-1.227-0.156-2.634-0.114-3.959,0.028
						c-1.344,0.13-2.679,0.385-4.006,0.674c-2.647,0.627-5.226,1.567-7.729,2.678c-2.525,1.077-4.905,2.473-7.28,3.88l-3.483,2.259
						C325.98,344.587,324.862,345.409,323.717,346.207z"/>
				</g>
				<g>
					<path style="fill:#A84338;" d="M291.931,275.135c1.702-1.05,3.694-1.739,5.783-1.746c1.041-0.007,2.101,0.2,3.081,0.622
						c0.979,0.428,1.845,1.102,2.542,1.896c1.381,1.621,2.117,3.631,2.483,5.621c0.383,2,0.423,4.029,0.281,6.026
						c-0.246-1.989-0.548-3.956-1.042-5.852c-0.502-1.882-1.245-3.722-2.476-5.138c-1.201-1.447-2.99-2.27-4.897-2.398
						C295.778,274.044,293.799,274.432,291.931,275.135z"/>
				</g>
				<path style="fill:#A84338;" d="M233.267,352.586c0.308,0.117,0.621,0.234,0.945,0.355l3.86-17.036l-1.004-0.098L233.267,352.586
					z"/>
			</g>
		</g>
		<g>
			<path style="fill:#263238;" d="M312.886,208.257c0,1.29-1.046,2.337-2.336,2.337s-2.336-1.046-2.336-2.337
				c0-1.29,1.046-2.336,2.336-2.336S312.886,206.967,312.886,208.257z"/>
			<path style="fill:#263238;" d="M289.518,204.09c0,1.413-0.813,2.558-1.816,2.558c-1.003,0-1.815-1.145-1.815-2.558
				c0-1.413,0.813-2.558,1.815-2.558C288.705,201.531,289.518,202.677,289.518,204.09z"/>
			<path style="fill:#6F4C47;" d="M297.256,234.254c0.564,2.678,3.35,4.359,6.223,3.754s4.745-3.267,4.181-5.945
				c-0.564-2.678-3.35-4.359-6.223-3.754C298.563,228.914,296.692,231.576,297.256,234.254z"/>
			<g>
				<path style="fill:#263238;" d="M307.229,201.812c0.01-1.096,0.543-2.237,1.507-2.983c0.951-0.782,2.273-1.016,3.424-0.889
					c1.15,0.116,2.378,0.623,3.164,1.564c0.803,0.917,1.103,2.149,0.885,3.224c-0.406-1.01-0.975-1.845-1.701-2.385
					c-0.727-0.536-1.58-0.808-2.51-0.912c-0.925-0.093-1.813-0.016-2.627,0.376C308.555,200.196,307.832,200.907,307.229,201.812z"
					/>
			</g>
			<g>
				<path style="fill:#263238;" d="M284.764,197.732c-0.044-0.97,0.267-1.991,1.002-2.793c0.724-0.841,2.005-1.163,3.057-0.981
					c0.528,0.111,1.068,0.266,1.532,0.584c0.45,0.321,0.864,0.708,1.115,1.182c0.53,0.924,0.672,1.971,0.461,2.923
					c-0.343-0.903-0.765-1.707-1.31-2.312c-0.555-0.597-1.23-0.937-2.008-1.054c-0.775-0.131-1.504-0.014-2.155,0.436
					C285.807,196.173,285.251,196.901,284.764,197.732z"/>
			</g>
			<g>
				<path style="fill:#263238;" d="M295.571,194.567c-0.748,3.053-1.527,6.085-2.346,9.1c-0.793,3.021-1.624,6.029-2.329,9.053
					c-0.369,1.507-0.698,3.022-0.941,4.533c-0.134,0.754-0.225,1.508-0.26,2.243c-0.017,0.366-0.007,0.727,0.035,1.049
					c0.045,0.347,0.1,0.51,0.321,0.791c0.749,1.051,2.336,1.414,3.823,1.497c1.525,0.096,3.083-0.083,4.629-0.349
					c-1.462,0.594-3.019,0.93-4.624,1.085c-0.807,0.044-1.631,0.007-2.461-0.173c-0.825-0.182-1.667-0.619-2.277-1.324
					c-0.31-0.299-0.585-0.871-0.649-1.303c-0.088-0.449-0.109-0.874-0.112-1.29c0.002-0.83,0.065-1.637,0.168-2.429
					c0.211-1.588,0.536-3.136,0.888-4.675c0.746-3.067,1.645-6.079,2.672-9.047C293.122,200.355,294.275,197.432,295.571,194.567z"
					/>
			</g>
			<path style="fill:#263238;" d="M311.611,228.837c-0.045-0.483-0.225-0.966-0.538-1.348c-0.297-0.397-0.696-0.716-1.133-0.942
				c-0.443-0.216-0.915-0.363-1.398-0.397c-0.479-0.037-0.97,0.006-1.422,0.212c0.795,0.368,1.488,0.642,2.146,0.972
				c-0.366,0.448-0.721,0.897-1.098,1.32l-0.907,0.94l-0.441,0.471l-0.495,0.412c-0.332,0.27-0.651,0.551-0.971,0.827L304.299,232
				c-0.335,0.257-0.721,0.425-1.091,0.619c-0.371,0.193-0.738,0.394-1.141,0.512c-1.54,0.641-3.216,0.953-4.923,1.019
				c-1.711,0.046-3.452-0.116-5.213-0.484c1.54,0.95,3.342,1.474,5.18,1.65c1.844,0.179,3.756-0.096,5.507-0.791
				c1.722-0.735,3.361-1.775,4.534-3.22l0.467-0.51c0.137-0.185,0.268-0.375,0.394-0.567l0.754-1.145
				c0.286-0.528,0.529-1.074,0.76-1.624c0.349,0.168,0.671,0.375,1.003,0.59C310.886,228.272,311.199,228.552,311.611,228.837z"/>
			<path style="fill:#263238;" d="M308.825,191.722l12.677,1.55c0.571,0.07,0.99-0.519,0.691-0.987
				c-0.79-1.237-2.567-3.117-6.266-3.724c-3.797-0.623-6.274,0.93-7.498,2.026C308.003,190.97,308.244,191.651,308.825,191.722z"/>
			<path style="fill:#263238;" d="M285.128,186.53l9.087,2.735c0.426,0.128,0.834-0.217,0.797-0.66
				c-0.102-1.2-0.858-3.314-4.696-4.39c-3.027-0.849-4.72,0.429-5.488,1.323C284.537,185.877,284.701,186.402,285.128,186.53z"/>
			<g>
				<path style="fill:#6F4C47;" d="M334.016,219.124c1.622-0.005,3.365,0.442,4.645,1.666c0.645,0.597,1.087,1.413,1.314,2.266
					c0.215,0.86,0.205,1.747,0.088,2.593c-0.132,0.843-0.374,1.69-0.827,2.454c-0.445,0.761-1.12,1.413-1.915,1.795
					c-1.612,0.769-3.418,0.583-4.931,0.006c1.601,0.245,3.291,0.13,4.597-0.626c1.305-0.77,1.983-2.236,2.18-3.763
					c0.251-1.515,0.012-3.103-1.016-4.235C337.139,220.149,335.601,219.464,334.016,219.124z"/>
			</g>
		</g>
	</g>
</g>
</svg>
